<svg width="1332" height="557" viewBox="0 0 1332 557" fill="none" xmlns="http://www.w3.org/2000/svg">
<rect width="1331.03" height="557" fill="white"/>
<path d="M146.797 58.348C146.695 57.3168 146.256 56.5156 145.48 55.9446C144.705 55.3736 143.652 55.0881 142.323 55.0881C141.419 55.0881 140.657 55.2159 140.034 55.4716C139.412 55.7188 138.935 56.0639 138.603 56.5071C138.279 56.9503 138.117 57.4531 138.117 58.0156C138.1 58.4844 138.198 58.8935 138.411 59.2429C138.632 59.5923 138.935 59.8949 139.318 60.1506C139.702 60.3977 140.145 60.6151 140.648 60.8026C141.151 60.9815 141.688 61.1349 142.259 61.2628L144.611 61.8253C145.753 62.081 146.801 62.4219 147.756 62.848C148.71 63.2741 149.537 63.7983 150.236 64.4205C150.935 65.0426 151.476 65.7756 151.86 66.6193C152.252 67.4631 152.452 68.4304 152.46 69.5213C152.452 71.1236 152.043 72.5128 151.233 73.6889C150.432 74.8565 149.273 75.7642 147.756 76.4119C146.247 77.0511 144.428 77.3707 142.297 77.3707C140.183 77.3707 138.343 77.0469 136.774 76.3991C135.215 75.7514 133.996 74.7926 133.118 73.5227C132.249 72.2443 131.793 70.6634 131.75 68.7798H137.107C137.166 69.6577 137.418 70.3906 137.861 70.9787C138.313 71.5582 138.914 71.9972 139.664 72.2955C140.422 72.5852 141.279 72.7301 142.233 72.7301C143.171 72.7301 143.985 72.5937 144.675 72.321C145.374 72.0483 145.915 71.669 146.299 71.1832C146.682 70.6974 146.874 70.1392 146.874 69.5085C146.874 68.9205 146.699 68.4261 146.35 68.0256C146.009 67.625 145.506 67.2841 144.841 67.0028C144.185 66.7216 143.38 66.4659 142.425 66.2358L139.574 65.5199C137.367 64.983 135.624 64.1435 134.345 63.0014C133.067 61.8594 132.432 60.321 132.441 58.3864C132.432 56.8011 132.854 55.4162 133.706 54.2315C134.567 53.0469 135.747 52.1222 137.247 51.4574C138.747 50.7926 140.452 50.4602 142.361 50.4602C144.304 50.4602 146 50.7926 147.449 51.4574C148.907 52.1222 150.04 53.0469 150.85 54.2315C151.659 55.4162 152.077 56.7884 152.103 58.348H146.797ZM164.954 77.3835C162.942 77.3835 161.212 76.9574 159.763 76.1051C158.323 75.2443 157.215 74.0511 156.44 72.5256C155.672 71 155.289 69.2443 155.289 67.2585C155.289 65.2472 155.677 63.483 156.452 61.9659C157.236 60.4403 158.349 59.2514 159.789 58.3991C161.229 57.5384 162.942 57.108 164.928 57.108C166.641 57.108 168.141 57.419 169.428 58.0412C170.715 58.6634 171.734 59.5369 172.484 60.6619C173.234 61.7869 173.647 63.108 173.724 64.625H168.584C168.44 63.6449 168.056 62.8565 167.434 62.2599C166.82 61.6548 166.015 61.3523 165.018 61.3523C164.174 61.3523 163.437 61.5824 162.806 62.0426C162.184 62.4943 161.698 63.1548 161.349 64.0241C160.999 64.8935 160.824 65.946 160.824 67.1818C160.824 68.4347 160.995 69.5 161.336 70.3778C161.685 71.2557 162.175 71.9247 162.806 72.3849C163.437 72.8452 164.174 73.0753 165.018 73.0753C165.64 73.0753 166.198 72.9474 166.692 72.6918C167.195 72.4361 167.609 72.0653 167.932 71.5795C168.265 71.0852 168.482 70.4929 168.584 69.8026H173.724C173.638 71.3026 173.229 72.6236 172.496 73.7656C171.772 74.8991 170.77 75.7855 169.492 76.4247C168.214 77.0639 166.701 77.3835 164.954 77.3835ZM177.21 77V57.3636H182.49V60.7898H182.695C183.053 59.571 183.654 58.6506 184.497 58.0284C185.341 57.3977 186.313 57.0824 187.412 57.0824C187.685 57.0824 187.979 57.0994 188.294 57.1335C188.61 57.1676 188.887 57.2145 189.125 57.2741V62.1065C188.87 62.0298 188.516 61.9616 188.064 61.902C187.612 61.8423 187.199 61.8125 186.824 61.8125C186.023 61.8125 185.307 61.9872 184.676 62.3366C184.054 62.6776 183.56 63.1548 183.193 63.7685C182.835 64.3821 182.657 65.0895 182.657 65.8906V77H177.21ZM196.978 77.3707C195.725 77.3707 194.609 77.1534 193.628 76.7188C192.648 76.2756 191.873 75.6236 191.302 74.7628C190.739 73.8935 190.458 72.8111 190.458 71.5156C190.458 70.4247 190.658 69.5085 191.059 68.767C191.459 68.0256 192.005 67.429 192.695 66.9773C193.386 66.5256 194.17 66.1847 195.047 65.9545C195.934 65.7244 196.863 65.5625 197.834 65.4688C198.976 65.3494 199.897 65.2386 200.596 65.1364C201.295 65.0256 201.802 64.8636 202.117 64.6506C202.432 64.4375 202.59 64.1222 202.59 63.7045V63.6278C202.59 62.8182 202.334 62.1918 201.823 61.7486C201.32 61.3054 200.604 61.0838 199.675 61.0838C198.695 61.0838 197.915 61.3011 197.336 61.7358C196.756 62.1619 196.373 62.6989 196.185 63.3466L191.148 62.9375C191.404 61.7443 191.907 60.7131 192.657 59.8438C193.407 58.9659 194.374 58.2926 195.559 57.8239C196.752 57.3466 198.133 57.108 199.701 57.108C200.792 57.108 201.836 57.2358 202.833 57.4915C203.839 57.7472 204.729 58.1435 205.505 58.6804C206.289 59.2173 206.907 59.9077 207.359 60.7514C207.81 61.5866 208.036 62.5881 208.036 63.7557V77H202.871V74.277H202.718C202.403 74.8906 201.981 75.4318 201.452 75.9006C200.924 76.3608 200.289 76.723 199.547 76.9872C198.806 77.2429 197.949 77.3707 196.978 77.3707ZM198.538 73.6122C199.339 73.6122 200.046 73.4545 200.66 73.1392C201.273 72.8153 201.755 72.3807 202.104 71.8352C202.454 71.2898 202.628 70.6719 202.628 69.9815V67.8977C202.458 68.0085 202.224 68.1108 201.925 68.2045C201.636 68.2898 201.307 68.3707 200.941 68.4474C200.574 68.5156 200.208 68.5795 199.842 68.6392C199.475 68.6903 199.143 68.7372 198.844 68.7798C198.205 68.8736 197.647 69.0227 197.17 69.2273C196.692 69.4318 196.322 69.7088 196.057 70.0582C195.793 70.3991 195.661 70.8253 195.661 71.3366C195.661 72.0781 195.93 72.6449 196.467 73.0369C197.012 73.4205 197.702 73.6122 198.538 73.6122ZM212.261 77V57.3636H217.452V60.8281H217.682C218.091 59.6776 218.773 58.7699 219.727 58.1051C220.682 57.4403 221.824 57.108 223.153 57.108C224.5 57.108 225.646 57.4446 226.592 58.1179C227.538 58.7827 228.169 59.6861 228.484 60.8281H228.689C229.089 59.7031 229.814 58.804 230.862 58.1307C231.919 57.4489 233.168 57.108 234.608 57.108C236.44 57.108 237.927 57.6918 239.07 58.8594C240.22 60.0185 240.795 61.6634 240.795 63.794V77H235.362V64.8679C235.362 63.777 235.072 62.9588 234.493 62.4134C233.913 61.8679 233.189 61.5952 232.32 61.5952C231.331 61.5952 230.56 61.9105 230.006 62.5412C229.452 63.1634 229.175 63.9858 229.175 65.0085V77H223.895V64.7528C223.895 63.7898 223.618 63.0227 223.064 62.4517C222.518 61.8807 221.798 61.5952 220.903 61.5952C220.298 61.5952 219.753 61.7486 219.267 62.0554C218.79 62.3537 218.41 62.7756 218.129 63.321C217.848 63.858 217.707 64.4886 217.707 65.2131V77H212.261ZM245.199 77V50.8182H250.645V60.6619H250.812C251.05 60.1335 251.395 59.5966 251.847 59.0511C252.307 58.4972 252.904 58.0369 253.637 57.6705C254.378 57.2955 255.299 57.108 256.398 57.108C257.83 57.108 259.151 57.483 260.361 58.233C261.572 58.9744 262.539 60.0952 263.263 61.5952C263.988 63.0866 264.35 64.9574 264.35 67.2074C264.35 69.3977 263.996 71.2472 263.289 72.7557C262.59 74.2557 261.636 75.3935 260.425 76.169C259.224 76.9361 257.877 77.3196 256.386 77.3196C255.329 77.3196 254.43 77.1449 253.688 76.7955C252.955 76.446 252.354 76.0071 251.886 75.4787C251.417 74.9418 251.059 74.4006 250.812 73.8551H250.569V77H245.199ZM250.53 67.1818C250.53 68.3494 250.692 69.3679 251.016 70.2372C251.34 71.1065 251.809 71.7841 252.422 72.2699C253.036 72.7472 253.782 72.9858 254.66 72.9858C255.546 72.9858 256.296 72.7429 256.91 72.2571C257.523 71.7628 257.988 71.081 258.303 70.2116C258.627 69.3338 258.789 68.3239 258.789 67.1818C258.789 66.0483 258.631 65.0511 258.316 64.1903C258.001 63.3295 257.536 62.6562 256.922 62.1705C256.309 61.6847 255.555 61.4418 254.66 61.4418C253.773 61.4418 253.023 61.6761 252.41 62.1449C251.805 62.6136 251.34 63.2784 251.016 64.1392C250.692 65 250.53 66.0142 250.53 67.1818ZM273.43 50.8182V77H267.984V50.8182H273.43ZM286.741 77.3835C284.721 77.3835 282.983 76.9744 281.525 76.1562C280.077 75.3295 278.96 74.1619 278.176 72.6534C277.392 71.1364 277 69.3423 277 67.2713C277 65.2514 277.392 63.4787 278.176 61.9531C278.96 60.4276 280.064 59.2386 281.487 58.3864C282.919 57.5341 284.598 57.108 286.524 57.108C287.82 57.108 289.025 57.3168 290.142 57.7344C291.267 58.1435 292.247 58.7614 293.082 59.5881C293.926 60.4148 294.582 61.4545 295.051 62.7074C295.52 63.9517 295.754 65.4091 295.754 67.0795V68.5753H279.173V65.2003H290.628C290.628 64.4162 290.457 63.7216 290.116 63.1165C289.775 62.5114 289.302 62.0384 288.697 61.6974C288.101 61.348 287.406 61.1733 286.614 61.1733C285.787 61.1733 285.054 61.3651 284.415 61.7486C283.784 62.1236 283.29 62.6307 282.932 63.2699C282.574 63.9006 282.391 64.6037 282.382 65.3793V68.5881C282.382 69.5597 282.561 70.3991 282.919 71.1065C283.285 71.8139 283.801 72.3594 284.466 72.7429C285.131 73.1264 285.919 73.3182 286.831 73.3182C287.436 73.3182 287.99 73.233 288.493 73.0625C288.996 72.892 289.426 72.6364 289.784 72.2955C290.142 71.9545 290.415 71.5369 290.602 71.0426L295.639 71.375C295.383 72.5852 294.859 73.642 294.067 74.5455C293.283 75.4403 292.268 76.1392 291.024 76.642C289.788 77.1364 288.361 77.3835 286.741 77.3835ZM306.544 77.3196C305.052 77.3196 303.702 76.9361 302.491 76.169C301.29 75.3935 300.335 74.2557 299.628 72.7557C298.929 71.2472 298.579 69.3977 298.579 67.2074C298.579 64.9574 298.942 63.0866 299.666 61.5952C300.391 60.0952 301.354 58.9744 302.555 58.233C303.766 57.483 305.091 57.108 306.531 57.108C307.631 57.108 308.547 57.2955 309.28 57.6705C310.021 58.0369 310.618 58.4972 311.069 59.0511C311.53 59.5966 311.879 60.1335 312.118 60.6619H312.284V50.8182H317.717V77H312.348V73.8551H312.118C311.862 74.4006 311.5 74.9418 311.031 75.4787C310.571 76.0071 309.97 76.446 309.229 76.7955C308.496 77.1449 307.601 77.3196 306.544 77.3196ZM308.27 72.9858C309.148 72.9858 309.889 72.7472 310.494 72.2699C311.108 71.7841 311.577 71.1065 311.9 70.2372C312.233 69.3679 312.399 68.3494 312.399 67.1818C312.399 66.0142 312.237 65 311.913 64.1392C311.589 63.2784 311.121 62.6136 310.507 62.1449C309.893 61.6761 309.148 61.4418 308.27 61.4418C307.375 61.4418 306.621 61.6847 306.007 62.1705C305.393 62.6562 304.929 63.3295 304.614 64.1903C304.298 65.0511 304.141 66.0483 304.141 67.1818C304.141 68.3239 304.298 69.3338 304.614 70.2116C304.937 71.081 305.402 71.7628 306.007 72.2571C306.621 72.7429 307.375 72.9858 308.27 72.9858Z" fill="black"/>
<path d="M515.454 77H506.172V50.8182H515.53C518.164 50.8182 520.431 51.3423 522.331 52.3906C524.232 53.4304 525.694 54.9261 526.716 56.8778C527.748 58.8295 528.263 61.1648 528.263 63.8835C528.263 66.6108 527.748 68.9545 526.716 70.9148C525.694 72.875 524.223 74.3793 522.306 75.4276C520.397 76.4759 518.113 77 515.454 77ZM511.708 72.2571H515.223C516.86 72.2571 518.236 71.9673 519.353 71.3878C520.478 70.7997 521.321 69.892 521.884 68.6648C522.455 67.429 522.74 65.8352 522.74 63.8835C522.74 61.9489 522.455 60.3679 521.884 59.1406C521.321 57.9134 520.482 57.0099 519.365 56.4304C518.249 55.8509 516.873 55.5611 515.236 55.5611H511.708V72.2571ZM541.134 77.3835C539.148 77.3835 537.43 76.9616 535.982 76.1179C534.541 75.2656 533.429 74.081 532.645 72.5639C531.861 71.0384 531.469 69.2699 531.469 67.2585C531.469 65.2301 531.861 63.4574 532.645 61.9403C533.429 60.4148 534.541 59.2301 535.982 58.3864C537.43 57.5341 539.148 57.108 541.134 57.108C543.119 57.108 544.832 57.5341 546.273 58.3864C547.722 59.2301 548.838 60.4148 549.622 61.9403C550.406 63.4574 550.798 65.2301 550.798 67.2585C550.798 69.2699 550.406 71.0384 549.622 72.5639C548.838 74.081 547.722 75.2656 546.273 76.1179C544.832 76.9616 543.119 77.3835 541.134 77.3835ZM541.159 73.1648C542.063 73.1648 542.817 72.9091 543.422 72.3977C544.027 71.8778 544.483 71.1705 544.79 70.2756C545.105 69.3807 545.263 68.3622 545.263 67.2202C545.263 66.0781 545.105 65.0597 544.79 64.1648C544.483 63.2699 544.027 62.5625 543.422 62.0426C542.817 61.5227 542.063 61.2628 541.159 61.2628C540.247 61.2628 539.48 61.5227 538.858 62.0426C538.244 62.5625 537.78 63.2699 537.465 64.1648C537.158 65.0597 537.004 66.0781 537.004 67.2202C537.004 68.3622 537.158 69.3807 537.465 70.2756C537.78 71.1705 538.244 71.8778 538.858 72.3977C539.48 72.9091 540.247 73.1648 541.159 73.1648ZM554.34 77V57.3636H559.53V60.8281H559.76C560.169 59.6776 560.851 58.7699 561.805 58.1051C562.76 57.4403 563.902 57.108 565.232 57.108C566.578 57.108 567.724 57.4446 568.67 58.1179C569.616 58.7827 570.247 59.6861 570.563 60.8281H570.767C571.168 59.7031 571.892 58.804 572.94 58.1307C573.997 57.4489 575.246 57.108 576.686 57.108C578.518 57.108 580.006 57.6918 581.148 58.8594C582.298 60.0185 582.874 61.6634 582.874 63.794V77H577.44V64.8679C577.44 63.777 577.151 62.9588 576.571 62.4134C575.991 61.8679 575.267 61.5952 574.398 61.5952C573.409 61.5952 572.638 61.9105 572.084 62.5412C571.53 63.1634 571.253 63.9858 571.253 65.0085V77H565.973V64.7528C565.973 63.7898 565.696 63.0227 565.142 62.4517C564.597 61.8807 563.876 61.5952 562.982 61.5952C562.376 61.5952 561.831 61.7486 561.345 62.0554C560.868 62.3537 560.489 62.7756 560.207 63.321C559.926 63.858 559.786 64.4886 559.786 65.2131V77H554.34ZM587.175 77V57.3636H592.621V77H587.175ZM589.911 54.8324C589.102 54.8324 588.407 54.5639 587.827 54.027C587.256 53.4815 586.971 52.8295 586.971 52.071C586.971 51.321 587.256 50.6776 587.827 50.1406C588.407 49.5952 589.102 49.3224 589.911 49.3224C590.721 49.3224 591.411 49.5952 591.982 50.1406C592.562 50.6776 592.852 51.321 592.852 52.071C592.852 52.8295 592.562 53.4815 591.982 54.027C591.411 54.5639 590.721 54.8324 589.911 54.8324ZM602.43 65.6477V77H596.984V57.3636H602.174V60.8281H602.404C602.839 59.6861 603.568 58.7827 604.591 58.1179C605.613 57.4446 606.853 57.108 608.311 57.108C609.674 57.108 610.863 57.4062 611.878 58.0028C612.892 58.5994 613.68 59.4517 614.243 60.5597C614.805 61.6591 615.086 62.9716 615.086 64.4972V77H609.64V65.4688C609.649 64.267 609.342 63.3295 608.72 62.6562C608.098 61.9744 607.241 61.6335 606.15 61.6335C605.417 61.6335 604.77 61.7912 604.207 62.1065C603.653 62.4219 603.218 62.8821 602.903 63.4872C602.596 64.0838 602.439 64.804 602.43 65.6477ZM628.251 77.3835C626.265 77.3835 624.548 76.9616 623.099 76.1179C621.658 75.2656 620.546 74.081 619.762 72.5639C618.978 71.0384 618.586 69.2699 618.586 67.2585C618.586 65.2301 618.978 63.4574 619.762 61.9403C620.546 60.4148 621.658 59.2301 623.099 58.3864C624.548 57.5341 626.265 57.108 628.251 57.108C630.237 57.108 631.95 57.5341 633.39 58.3864C634.839 59.2301 635.955 60.4148 636.739 61.9403C637.523 63.4574 637.916 65.2301 637.916 67.2585C637.916 69.2699 637.523 71.0384 636.739 72.5639C635.955 74.081 634.839 75.2656 633.39 76.1179C631.95 76.9616 630.237 77.3835 628.251 77.3835ZM628.276 73.1648C629.18 73.1648 629.934 72.9091 630.539 72.3977C631.144 71.8778 631.6 71.1705 631.907 70.2756C632.222 69.3807 632.38 68.3622 632.38 67.2202C632.38 66.0781 632.222 65.0597 631.907 64.1648C631.6 63.2699 631.144 62.5625 630.539 62.0426C629.934 61.5227 629.18 61.2628 628.276 61.2628C627.364 61.2628 626.597 61.5227 625.975 62.0426C625.362 62.5625 624.897 63.2699 624.582 64.1648C624.275 65.0597 624.121 66.0781 624.121 67.2202C624.121 68.3622 624.275 69.3807 624.582 70.2756C624.897 71.1705 625.362 71.8778 625.975 72.3977C626.597 72.9091 627.364 73.1648 628.276 73.1648ZM649.891 77V50.8182H660.221C662.198 50.8182 663.885 51.1719 665.283 51.8793C666.689 52.5781 667.759 53.571 668.492 54.858C669.233 56.1364 669.604 57.6406 669.604 59.3707C669.604 61.1094 669.229 62.6051 668.479 63.858C667.729 65.1023 666.642 66.0568 665.219 66.7216C663.804 67.3864 662.091 67.7188 660.08 67.7188H653.164V63.2699H659.185C660.242 63.2699 661.12 63.125 661.819 62.8352C662.517 62.5455 663.037 62.1108 663.378 61.5312C663.728 60.9517 663.902 60.2315 663.902 59.3707C663.902 58.5014 663.728 57.7685 663.378 57.1719C663.037 56.5753 662.513 56.1236 661.806 55.8168C661.107 55.5014 660.225 55.3438 659.159 55.3438H655.427V77H649.891ZM664.03 65.0852L670.537 77H664.427L658.06 65.0852H664.03ZM682.046 77.3835C680.026 77.3835 678.288 76.9744 676.83 76.1562C675.381 75.3295 674.265 74.1619 673.481 72.6534C672.697 71.1364 672.305 69.3423 672.305 67.2713C672.305 65.2514 672.697 63.4787 673.481 61.9531C674.265 60.4276 675.369 59.2386 676.792 58.3864C678.224 57.5341 679.903 57.108 681.829 57.108C683.124 57.108 684.33 57.3168 685.447 57.7344C686.572 58.1435 687.552 58.7614 688.387 59.5881C689.231 60.4148 689.887 61.4545 690.356 62.7074C690.825 63.9517 691.059 65.4091 691.059 67.0795V68.5753H674.478V65.2003H685.933C685.933 64.4162 685.762 63.7216 685.421 63.1165C685.08 62.5114 684.607 62.0384 684.002 61.6974C683.406 61.348 682.711 61.1733 681.918 61.1733C681.092 61.1733 680.359 61.3651 679.719 61.7486C679.089 62.1236 678.594 62.6307 678.237 63.2699C677.879 63.9006 677.695 64.6037 677.687 65.3793V68.5881C677.687 69.5597 677.866 70.3991 678.224 71.1065C678.59 71.8139 679.106 72.3594 679.771 72.7429C680.435 73.1264 681.224 73.3182 682.136 73.3182C682.741 73.3182 683.295 73.233 683.798 73.0625C684.3 72.892 684.731 72.6364 685.089 72.2955C685.447 71.9545 685.719 71.5369 685.907 71.0426L690.944 71.375C690.688 72.5852 690.164 73.642 689.371 74.5455C688.587 75.4403 687.573 76.1392 686.329 76.642C685.093 77.1364 683.666 77.3835 682.046 77.3835ZM701.849 77.3196C700.357 77.3196 699.006 76.9361 697.796 76.169C696.594 75.3935 695.64 74.2557 694.933 72.7557C694.234 71.2472 693.884 69.3977 693.884 67.2074C693.884 64.9574 694.246 63.0866 694.971 61.5952C695.695 60.0952 696.658 58.9744 697.86 58.233C699.07 57.483 700.396 57.108 701.836 57.108C702.935 57.108 703.852 57.2955 704.585 57.6705C705.326 58.0369 705.923 58.4972 706.374 59.0511C706.835 59.5966 707.184 60.1335 707.423 60.6619H707.589V50.8182H713.022V77H707.653V73.8551H707.423C707.167 74.4006 706.805 74.9418 706.336 75.4787C705.876 76.0071 705.275 76.446 704.533 76.7955C703.8 77.1449 702.906 77.3196 701.849 77.3196ZM703.575 72.9858C704.452 72.9858 705.194 72.7472 705.799 72.2699C706.413 71.7841 706.881 71.1065 707.205 70.2372C707.538 69.3679 707.704 68.3494 707.704 67.1818C707.704 66.0142 707.542 65 707.218 64.1392C706.894 63.2784 706.425 62.6136 705.812 62.1449C705.198 61.6761 704.452 61.4418 703.575 61.4418C702.68 61.4418 701.925 61.6847 701.312 62.1705C700.698 62.6562 700.234 63.3295 699.918 64.1903C699.603 65.0511 699.445 66.0483 699.445 67.1818C699.445 68.3239 699.603 69.3338 699.918 70.2116C700.242 71.081 700.707 71.7628 701.312 72.2571C701.925 72.7429 702.68 72.9858 703.575 72.9858ZM730.092 68.6392V57.3636H735.538V77H730.309V73.4332H730.105C729.662 74.5838 728.924 75.5085 727.893 76.2074C726.87 76.9062 725.622 77.2557 724.147 77.2557C722.835 77.2557 721.68 76.9574 720.683 76.3608C719.686 75.7642 718.906 74.9162 718.343 73.8168C717.789 72.7173 717.508 71.4006 717.5 69.8665V57.3636H722.946V68.8949C722.954 70.054 723.265 70.9702 723.879 71.6435C724.493 72.3168 725.315 72.6534 726.346 72.6534C727.003 72.6534 727.616 72.5043 728.187 72.206C728.758 71.8991 729.218 71.4474 729.568 70.8509C729.926 70.2543 730.101 69.517 730.092 68.6392ZM748.766 77.3835C746.755 77.3835 745.025 76.9574 743.576 76.1051C742.136 75.2443 741.028 74.0511 740.252 72.5256C739.485 71 739.102 69.2443 739.102 67.2585C739.102 65.2472 739.489 63.483 740.265 61.9659C741.049 60.4403 742.161 59.2514 743.602 58.3991C745.042 57.5384 746.755 57.108 748.741 57.108C750.454 57.108 751.954 57.419 753.241 58.0412C754.528 58.6634 755.546 59.5369 756.296 60.6619C757.046 61.7869 757.46 63.108 757.536 64.625H752.397C752.252 63.6449 751.869 62.8565 751.246 62.2599C750.633 61.6548 749.827 61.3523 748.83 61.3523C747.987 61.3523 747.249 61.5824 746.619 62.0426C745.996 62.4943 745.511 63.1548 745.161 64.0241C744.812 64.8935 744.637 65.946 744.637 67.1818C744.637 68.4347 744.808 69.5 745.148 70.3778C745.498 71.2557 745.988 71.9247 746.619 72.3849C747.249 72.8452 747.987 73.0753 748.83 73.0753C749.452 73.0753 750.011 72.9474 750.505 72.6918C751.008 72.4361 751.421 72.0653 751.745 71.5795C752.077 71.0852 752.295 70.4929 752.397 69.8026H757.536C757.451 71.3026 757.042 72.6236 756.309 73.7656C755.585 74.8991 754.583 75.7855 753.305 76.4247C752.026 77.0639 750.514 77.3835 748.766 77.3835ZM771.468 57.3636V61.4545H759.642V57.3636H771.468ZM762.327 52.6591H767.773V70.9659C767.773 71.4687 767.85 71.8608 768.003 72.142C768.157 72.4148 768.37 72.6065 768.642 72.7173C768.924 72.8281 769.248 72.8835 769.614 72.8835C769.87 72.8835 770.125 72.8622 770.381 72.8196C770.637 72.7685 770.833 72.7301 770.969 72.7045L771.826 76.7571C771.553 76.8423 771.169 76.9403 770.675 77.0511C770.181 77.1705 769.58 77.2429 768.873 77.2685C767.56 77.3196 766.409 77.1449 765.421 76.7443C764.441 76.3437 763.678 75.7216 763.132 74.8778C762.587 74.0341 762.319 72.9687 762.327 71.6818V52.6591ZM775.015 77V57.3636H780.461V77H775.015ZM777.751 54.8324C776.941 54.8324 776.247 54.5639 775.667 54.027C775.096 53.4815 774.811 52.8295 774.811 52.071C774.811 51.321 775.096 50.6776 775.667 50.1406C776.247 49.5952 776.941 49.3224 777.751 49.3224C778.561 49.3224 779.251 49.5952 779.822 50.1406C780.402 50.6776 780.691 51.321 780.691 52.071C780.691 52.8295 780.402 53.4815 779.822 54.027C779.251 54.5639 778.561 54.8324 777.751 54.8324ZM793.696 77.3835C791.71 77.3835 789.993 76.9616 788.544 76.1179C787.104 75.2656 785.991 74.081 785.207 72.5639C784.423 71.0384 784.031 69.2699 784.031 67.2585C784.031 65.2301 784.423 63.4574 785.207 61.9403C785.991 60.4148 787.104 59.2301 788.544 58.3864C789.993 57.5341 791.71 57.108 793.696 57.108C795.682 57.108 797.395 57.5341 798.835 58.3864C800.284 59.2301 801.401 60.4148 802.185 61.9403C802.969 63.4574 803.361 65.2301 803.361 67.2585C803.361 69.2699 802.969 71.0384 802.185 72.5639C801.401 74.081 800.284 75.2656 798.835 76.1179C797.395 76.9616 795.682 77.3835 793.696 77.3835ZM793.722 73.1648C794.625 73.1648 795.379 72.9091 795.984 72.3977C796.589 71.8778 797.045 71.1705 797.352 70.2756C797.668 69.3807 797.825 68.3622 797.825 67.2202C797.825 66.0781 797.668 65.0597 797.352 64.1648C797.045 63.2699 796.589 62.5625 795.984 62.0426C795.379 61.5227 794.625 61.2628 793.722 61.2628C792.81 61.2628 792.043 61.5227 791.42 62.0426C790.807 62.5625 790.342 63.2699 790.027 64.1648C789.72 65.0597 789.567 66.0781 789.567 67.2202C789.567 68.3622 789.72 69.3807 790.027 70.2756C790.342 71.1705 790.807 71.8778 791.42 72.3977C792.043 72.9091 792.81 73.1648 793.722 73.1648ZM812.348 65.6477V77H806.902V57.3636H812.092V60.8281H812.322C812.757 59.6861 813.486 58.7827 814.509 58.1179C815.531 57.4446 816.771 57.108 818.229 57.108C819.592 57.108 820.781 57.4062 821.795 58.0028C822.81 58.5994 823.598 59.4517 824.161 60.5597C824.723 61.6591 825.004 62.9716 825.004 64.4972V77H819.558V65.4688C819.567 64.267 819.26 63.3295 818.638 62.6562C818.016 61.9744 817.159 61.6335 816.068 61.6335C815.335 61.6335 814.688 61.7912 814.125 62.1065C813.571 62.4219 813.136 62.8821 812.821 63.4872C812.514 64.0838 812.357 64.804 812.348 65.6477Z" fill="black"/>
<path d="M933.874 77V50.8182H939.409V61.6207H950.646V50.8182H956.169V77H950.646V66.1847H939.409V77H933.874ZM966.23 77.3707C964.977 77.3707 963.861 77.1534 962.881 76.7188C961.901 76.2756 961.125 75.6236 960.554 74.7628C959.991 73.8935 959.71 72.8111 959.71 71.5156C959.71 70.4247 959.91 69.5085 960.311 68.767C960.712 68.0256 961.257 67.429 961.947 66.9773C962.638 66.5256 963.422 66.1847 964.3 65.9545C965.186 65.7244 966.115 65.5625 967.087 65.4688C968.229 65.3494 969.149 65.2386 969.848 65.1364C970.547 65.0256 971.054 64.8636 971.369 64.6506C971.685 64.4375 971.842 64.1222 971.842 63.7045V63.6278C971.842 62.8182 971.587 62.1918 971.075 61.7486C970.572 61.3054 969.856 61.0838 968.928 61.0838C967.947 61.0838 967.168 61.3011 966.588 61.7358C966.008 62.1619 965.625 62.6989 965.437 63.3466L960.401 62.9375C960.656 61.7443 961.159 60.7131 961.909 59.8438C962.659 58.9659 963.626 58.2926 964.811 57.8239C966.004 57.3466 967.385 57.108 968.953 57.108C970.044 57.108 971.088 57.2358 972.085 57.4915C973.091 57.7472 973.982 58.1435 974.757 58.6804C975.541 59.2173 976.159 59.9077 976.611 60.7514C977.062 61.5866 977.288 62.5881 977.288 63.7557V77H972.124V74.277H971.97C971.655 74.8906 971.233 75.4318 970.705 75.9006C970.176 76.3608 969.541 76.723 968.8 76.9872C968.058 77.2429 967.202 77.3707 966.23 77.3707ZM967.79 73.6122C968.591 73.6122 969.298 73.4545 969.912 73.1392C970.526 72.8153 971.007 72.3807 971.356 71.8352C971.706 71.2898 971.881 70.6719 971.881 69.9815V67.8977C971.71 68.0085 971.476 68.1108 971.178 68.2045C970.888 68.2898 970.56 68.3707 970.193 68.4474C969.827 68.5156 969.46 68.5795 969.094 68.6392C968.727 68.6903 968.395 68.7372 968.097 68.7798C967.457 68.8736 966.899 69.0227 966.422 69.2273C965.945 69.4318 965.574 69.7088 965.31 70.0582C965.045 70.3991 964.913 70.8253 964.913 71.3366C964.913 72.0781 965.182 72.6449 965.719 73.0369C966.264 73.4205 966.955 73.6122 967.79 73.6122ZM986.959 50.8182V77H981.513V50.8182H986.959ZM1001.88 57.3636V61.4545H989.762V57.3636H1001.88ZM992.537 77V55.9446C992.537 54.5213 992.814 53.3409 993.368 52.4034C993.93 51.4659 994.697 50.7628 995.669 50.294C996.64 49.8253 997.744 49.5909 998.98 49.5909C999.815 49.5909 1000.58 49.6548 1001.27 49.7827C1001.97 49.9105 1002.49 50.0256 1002.83 50.1278L1001.86 54.2188C1001.64 54.1506 1001.38 54.0866 1001.06 54.027C1000.76 53.9673 1000.44 53.9375 1000.12 53.9375C999.316 53.9375 998.758 54.125 998.443 54.5C998.127 54.8665 997.97 55.3821 997.97 56.0469V77H992.537ZM1012.65 55.3821V50.8182H1034.15V55.3821H1026.13V77H1020.66V55.3821H1012.65ZM1047.51 68.6392V57.3636H1052.95V77H1047.73V73.4332H1047.52C1047.08 74.5838 1046.34 75.5085 1045.31 76.2074C1044.29 76.9062 1043.04 77.2557 1041.56 77.2557C1040.25 77.2557 1039.1 76.9574 1038.1 76.3608C1037.1 75.7642 1036.32 74.9162 1035.76 73.8168C1035.21 72.7173 1034.92 71.4006 1034.92 69.8665V57.3636H1040.36V68.8949C1040.37 70.054 1040.68 70.9702 1041.3 71.6435C1041.91 72.3168 1042.73 72.6534 1043.76 72.6534C1044.42 72.6534 1045.03 72.5043 1045.6 72.206C1046.17 71.8991 1046.63 71.4474 1046.98 70.8509C1047.34 70.2543 1047.52 69.517 1047.51 68.6392ZM1057.31 77V57.3636H1062.59V60.7898H1062.79C1063.15 59.571 1063.75 58.6506 1064.6 58.0284C1065.44 57.3977 1066.41 57.0824 1067.51 57.0824C1067.78 57.0824 1068.08 57.0994 1068.39 57.1335C1068.71 57.1676 1068.99 57.2145 1069.23 57.2741V62.1065C1068.97 62.0298 1068.62 61.9616 1068.16 61.902C1067.71 61.8423 1067.3 61.8125 1066.92 61.8125C1066.12 61.8125 1065.41 61.9872 1064.78 62.3366C1064.15 62.6776 1063.66 63.1548 1063.29 63.7685C1062.94 64.3821 1062.76 65.0895 1062.76 65.8906V77H1057.31ZM1077.49 65.6477V77H1072.04V57.3636H1077.23V60.8281H1077.46C1077.9 59.6861 1078.62 58.7827 1079.65 58.1179C1080.67 57.4446 1081.91 57.108 1083.37 57.108C1084.73 57.108 1085.92 57.4062 1086.93 58.0028C1087.95 58.5994 1088.74 59.4517 1089.3 60.5597C1089.86 61.6591 1090.14 62.9716 1090.14 64.4972V77H1084.7V65.4688C1084.71 64.267 1084.4 63.3295 1083.78 62.6562C1083.15 61.9744 1082.3 61.6335 1081.21 61.6335C1080.47 61.6335 1079.83 61.7912 1079.26 62.1065C1078.71 62.4219 1078.28 62.8821 1077.96 63.4872C1077.65 64.0838 1077.5 64.804 1077.49 65.6477ZM1102.87 77V50.8182H1113.2C1115.18 50.8182 1116.86 51.1719 1118.26 51.8793C1119.67 52.5781 1120.74 53.571 1121.47 54.858C1122.21 56.1364 1122.58 57.6406 1122.58 59.3707C1122.58 61.1094 1122.21 62.6051 1121.46 63.858C1120.71 65.1023 1119.62 66.0568 1118.2 66.7216C1116.78 67.3864 1115.07 67.7188 1113.06 67.7188H1106.14V63.2699H1112.16C1113.22 63.2699 1114.1 63.125 1114.8 62.8352C1115.5 62.5455 1116.02 62.1108 1116.36 61.5312C1116.71 60.9517 1116.88 60.2315 1116.88 59.3707C1116.88 58.5014 1116.71 57.7685 1116.36 57.1719C1116.02 56.5753 1115.49 56.1236 1114.78 55.8168C1114.09 55.5014 1113.2 55.3438 1112.14 55.3438H1108.41V77H1102.87ZM1117.01 65.0852L1123.52 77H1117.41L1111.04 65.0852H1117.01ZM1135.02 77.3835C1133 77.3835 1131.27 76.9744 1129.81 76.1562C1128.36 75.3295 1127.24 74.1619 1126.46 72.6534C1125.68 71.1364 1125.28 69.3423 1125.28 67.2713C1125.28 65.2514 1125.68 63.4787 1126.46 61.9531C1127.24 60.4276 1128.35 59.2386 1129.77 58.3864C1131.2 57.5341 1132.88 57.108 1134.81 57.108C1136.1 57.108 1137.31 57.3168 1138.43 57.7344C1139.55 58.1435 1140.53 58.7614 1141.37 59.5881C1142.21 60.4148 1142.87 61.4545 1143.33 62.7074C1143.8 63.9517 1144.04 65.4091 1144.04 67.0795V68.5753H1127.46V65.2003H1138.91C1138.91 64.4162 1138.74 63.7216 1138.4 63.1165C1138.06 62.5114 1137.59 62.0384 1136.98 61.6974C1136.38 61.348 1135.69 61.1733 1134.9 61.1733C1134.07 61.1733 1133.34 61.3651 1132.7 61.7486C1132.07 62.1236 1131.57 62.6307 1131.22 63.2699C1130.86 63.9006 1130.67 64.6037 1130.67 65.3793V68.5881C1130.67 69.5597 1130.84 70.3991 1131.2 71.1065C1131.57 71.8139 1132.08 72.3594 1132.75 72.7429C1133.41 73.1264 1134.2 73.3182 1135.11 73.3182C1135.72 73.3182 1136.27 73.233 1136.78 73.0625C1137.28 72.892 1137.71 72.6364 1138.07 72.2955C1138.43 71.9545 1138.7 71.5369 1138.89 71.0426L1143.92 71.375C1143.67 72.5852 1143.14 73.642 1142.35 74.5455C1141.57 75.4403 1140.55 76.1392 1139.31 76.642C1138.07 77.1364 1136.64 77.3835 1135.02 77.3835ZM1154.83 77.3196C1153.34 77.3196 1151.99 76.9361 1150.77 76.169C1149.57 75.3935 1148.62 74.2557 1147.91 72.7557C1147.21 71.2472 1146.86 69.3977 1146.86 67.2074C1146.86 64.9574 1147.23 63.0866 1147.95 61.5952C1148.67 60.0952 1149.64 58.9744 1150.84 58.233C1152.05 57.483 1153.37 57.108 1154.81 57.108C1155.91 57.108 1156.83 57.2955 1157.56 57.6705C1158.3 58.0369 1158.9 58.4972 1159.35 59.0511C1159.81 59.5966 1160.16 60.1335 1160.4 60.6619H1160.57V50.8182H1166V77H1160.63V73.8551H1160.4C1160.15 74.4006 1159.78 74.9418 1159.31 75.4787C1158.85 76.0071 1158.25 76.446 1157.51 76.7955C1156.78 77.1449 1155.88 77.3196 1154.83 77.3196ZM1156.55 72.9858C1157.43 72.9858 1158.17 72.7472 1158.78 72.2699C1159.39 71.7841 1159.86 71.1065 1160.18 70.2372C1160.52 69.3679 1160.68 68.3494 1160.68 67.1818C1160.68 66.0142 1160.52 65 1160.2 64.1392C1159.87 63.2784 1159.4 62.6136 1158.79 62.1449C1158.18 61.6761 1157.43 61.4418 1156.55 61.4418C1155.66 61.4418 1154.9 61.6847 1154.29 62.1705C1153.68 62.6562 1153.21 63.3295 1152.9 64.1903C1152.58 65.0511 1152.42 66.0483 1152.42 67.1818C1152.42 68.3239 1152.58 69.3338 1152.9 70.2116C1153.22 71.081 1153.69 71.7628 1154.29 72.2571C1154.9 72.7429 1155.66 72.9858 1156.55 72.9858ZM1183.07 68.6392V57.3636H1188.52V77H1183.29V73.4332H1183.08C1182.64 74.5838 1181.9 75.5085 1180.87 76.2074C1179.85 76.9062 1178.6 77.2557 1177.13 77.2557C1175.81 77.2557 1174.66 76.9574 1173.66 76.3608C1172.66 75.7642 1171.88 74.9162 1171.32 73.8168C1170.77 72.7173 1170.49 71.4006 1170.48 69.8665V57.3636H1175.92V68.8949C1175.93 70.054 1176.24 70.9702 1176.86 71.6435C1177.47 72.3168 1178.29 72.6534 1179.32 72.6534C1179.98 72.6534 1180.59 72.5043 1181.17 72.206C1181.74 71.8991 1182.2 71.4474 1182.55 70.8509C1182.9 70.2543 1183.08 69.517 1183.07 68.6392ZM1201.74 77.3835C1199.73 77.3835 1198 76.9574 1196.55 76.1051C1195.11 75.2443 1194.01 74.0511 1193.23 72.5256C1192.46 71 1192.08 69.2443 1192.08 67.2585C1192.08 65.2472 1192.47 63.483 1193.24 61.9659C1194.03 60.4403 1195.14 59.2514 1196.58 58.3991C1198.02 57.5384 1199.73 57.108 1201.72 57.108C1203.43 57.108 1204.93 57.419 1206.22 58.0412C1207.51 58.6634 1208.52 59.5369 1209.27 60.6619C1210.02 61.7869 1210.44 63.108 1210.51 64.625H1205.38C1205.23 63.6449 1204.85 62.8565 1204.23 62.2599C1203.61 61.6548 1202.81 61.3523 1201.81 61.3523C1200.97 61.3523 1200.23 61.5824 1199.6 62.0426C1198.98 62.4943 1198.49 63.1548 1198.14 64.0241C1197.79 64.8935 1197.62 65.946 1197.62 67.1818C1197.62 68.4347 1197.79 69.5 1198.13 70.3778C1198.48 71.2557 1198.97 71.9247 1199.6 72.3849C1200.23 72.8452 1200.97 73.0753 1201.81 73.0753C1202.43 73.0753 1202.99 72.9474 1203.48 72.6918C1203.99 72.4361 1204.4 72.0653 1204.72 71.5795C1205.06 71.0852 1205.27 70.4929 1205.38 69.8026H1210.51C1210.43 71.3026 1210.02 72.6236 1209.29 73.7656C1208.56 74.8991 1207.56 75.7855 1206.28 76.4247C1205 77.0639 1203.49 77.3835 1201.74 77.3835ZM1224.45 57.3636V61.4545H1212.62V57.3636H1224.45ZM1215.31 52.6591H1220.75V70.9659C1220.75 71.4687 1220.83 71.8608 1220.98 72.142C1221.14 72.4148 1221.35 72.6065 1221.62 72.7173C1221.9 72.8281 1222.23 72.8835 1222.59 72.8835C1222.85 72.8835 1223.1 72.8622 1223.36 72.8196C1223.62 72.7685 1223.81 72.7301 1223.95 72.7045L1224.8 76.7571C1224.53 76.8423 1224.15 76.9403 1223.65 77.0511C1223.16 77.1705 1222.56 77.2429 1221.85 77.2685C1220.54 77.3196 1219.39 77.1449 1218.4 76.7443C1217.42 76.3437 1216.66 75.7216 1216.11 74.8778C1215.57 74.0341 1215.3 72.9687 1215.31 71.6818V52.6591ZM1227.99 77V57.3636H1233.44V77H1227.99ZM1230.73 54.8324C1229.92 54.8324 1229.23 54.5639 1228.65 54.027C1228.07 53.4815 1227.79 52.8295 1227.79 52.071C1227.79 51.321 1228.07 50.6776 1228.65 50.1406C1229.23 49.5952 1229.92 49.3224 1230.73 49.3224C1231.54 49.3224 1232.23 49.5952 1232.8 50.1406C1233.38 50.6776 1233.67 51.321 1233.67 52.071C1233.67 52.8295 1233.38 53.4815 1232.8 54.027C1232.23 54.5639 1231.54 54.8324 1230.73 54.8324ZM1246.67 77.3835C1244.69 77.3835 1242.97 76.9616 1241.52 76.1179C1240.08 75.2656 1238.97 74.081 1238.19 72.5639C1237.4 71.0384 1237.01 69.2699 1237.01 67.2585C1237.01 65.2301 1237.4 63.4574 1238.19 61.9403C1238.97 60.4148 1240.08 59.2301 1241.52 58.3864C1242.97 57.5341 1244.69 57.108 1246.67 57.108C1248.66 57.108 1250.37 57.5341 1251.81 58.3864C1253.26 59.2301 1254.38 60.4148 1255.16 61.9403C1255.95 63.4574 1256.34 65.2301 1256.34 67.2585C1256.34 69.2699 1255.95 71.0384 1255.16 72.5639C1254.38 74.081 1253.26 75.2656 1251.81 76.1179C1250.37 76.9616 1248.66 77.3835 1246.67 77.3835ZM1246.7 73.1648C1247.6 73.1648 1248.36 72.9091 1248.96 72.3977C1249.57 71.8778 1250.02 71.1705 1250.33 70.2756C1250.65 69.3807 1250.8 68.3622 1250.8 67.2202C1250.8 66.0781 1250.65 65.0597 1250.33 64.1648C1250.02 63.2699 1249.57 62.5625 1248.96 62.0426C1248.36 61.5227 1247.6 61.2628 1246.7 61.2628C1245.79 61.2628 1245.02 61.5227 1244.4 62.0426C1243.79 62.5625 1243.32 63.2699 1243.01 64.1648C1242.7 65.0597 1242.55 66.0781 1242.55 67.2202C1242.55 68.3622 1242.7 69.3807 1243.01 70.2756C1243.32 71.1705 1243.79 71.8778 1244.4 72.3977C1245.02 72.9091 1245.79 73.1648 1246.7 73.1648ZM1265.33 65.6477V77H1259.88V57.3636H1265.07V60.8281H1265.3C1265.74 59.6861 1266.46 58.7827 1267.49 58.1179C1268.51 57.4446 1269.75 57.108 1271.21 57.108C1272.57 57.108 1273.76 57.4062 1274.77 58.0028C1275.79 58.5994 1276.58 59.4517 1277.14 60.5597C1277.7 61.6591 1277.98 62.9716 1277.98 64.4972V77H1272.54V65.4688C1272.55 64.267 1272.24 63.3295 1271.62 62.6562C1270.99 61.9744 1270.14 61.6335 1269.05 61.6335C1268.31 61.6335 1267.67 61.7912 1267.1 62.1065C1266.55 62.4219 1266.12 62.8821 1265.8 63.4872C1265.49 64.0838 1265.34 64.804 1265.33 65.6477Z" fill="black"/>
<g clip-path="url(#clip0_2_197)">
<path d="M100.675 258H39.6375C34.3149 258 30 262.315 30 267.638V328.675C30 333.998 34.3149 338.312 39.6375 338.312H100.675C105.998 338.312 110.312 333.998 110.312 328.675V267.638C110.312 262.315 105.998 258 100.675 258Z" fill="#59A14F"/>
<path d="M189.019 258H127.981C122.659 258 118.344 262.315 118.344 267.638V328.675C118.344 333.998 122.659 338.312 127.981 338.312H189.019C194.341 338.312 198.656 333.998 198.656 328.675V267.638C198.656 262.315 194.341 258 189.019 258Z" fill="#59A14F"/>
<path d="M277.363 258H216.325C211.002 258 206.688 262.315 206.688 267.638V328.675C206.688 333.998 211.002 338.312 216.325 338.312H277.363C282.685 338.312 287 333.998 287 328.675V267.638C287 262.315 282.685 258 277.363 258Z" fill="#EDC948"/>
<path d="M100.675 346.344H39.6375C34.3149 346.344 30 350.659 30 355.981V417.019C30 422.341 34.3149 426.656 39.6375 426.656H100.675C105.998 426.656 110.312 422.341 110.312 417.019V355.981C110.312 350.659 105.998 346.344 100.675 346.344Z" fill="#59A14F"/>
<path d="M189.019 346.344H127.981C122.659 346.344 118.344 350.659 118.344 355.981V417.019C118.344 422.341 122.659 426.656 127.981 426.656H189.019C194.341 426.656 198.656 422.341 198.656 417.019V355.981C198.656 350.659 194.341 346.344 189.019 346.344Z" fill="#59A14F"/>
<path d="M277.363 346.344H216.325C211.002 346.344 206.688 350.659 206.688 355.981V417.019C206.688 422.341 211.002 426.656 216.325 426.656H277.363C282.685 426.656 287 422.341 287 417.019V355.981C287 350.659 282.685 346.344 277.363 346.344Z" fill="#BAB0AC"/>
<path d="M100.675 434.688H39.6375C34.3149 434.688 30 439.002 30 444.325V505.363C30 510.685 34.3149 515 39.6375 515H100.675C105.998 515 110.312 510.685 110.312 505.363V444.325C110.312 439.002 105.998 434.688 100.675 434.688Z" fill="#F28E2B"/>
<path d="M189.019 434.688H127.981C122.659 434.688 118.344 439.002 118.344 444.325V505.363C118.344 510.685 122.659 515 127.981 515H189.019C194.341 515 198.656 510.685 198.656 505.363V444.325C198.656 439.002 194.341 434.688 189.019 434.688Z" fill="#BAB0AC"/>
<path d="M277.363 434.688H216.325C211.002 434.688 206.688 439.002 206.688 444.325V505.363C206.688 510.685 211.002 515 216.325 515H277.363C282.685 515 287 510.685 287 505.363V444.325C287 439.002 282.685 434.688 277.363 434.688Z" fill="#4E79A7"/>
</g>
<g clip-path="url(#clip1_2_197)">
<path d="M328.019 221.661L297.775 251.905C295.138 254.542 293 260.945 293 266.206V326.54C293 331.801 295.138 333.928 297.775 331.291L328.019 301.047C330.657 298.409 332.795 292.006 332.795 286.745V226.412C332.795 221.15 330.657 219.023 328.019 221.661Z" fill="#59A14F"/>
<path d="M371.793 177.887L341.549 208.131C338.912 210.768 336.774 217.171 336.774 222.432V282.766C336.774 288.027 338.912 290.154 341.549 287.517L371.793 257.273C374.431 254.635 376.569 248.232 376.569 242.971V182.638C376.569 177.376 374.431 175.249 371.793 177.887Z" fill="#EDC948"/>
<path d="M415.568 134.112L385.324 164.356C382.686 166.994 380.548 173.397 380.548 178.658V238.991C380.548 244.253 382.686 246.38 385.324 243.742L415.568 213.499C418.205 210.861 420.343 204.458 420.343 199.197V138.863C420.343 133.602 418.205 131.475 415.568 134.112Z" fill="#BAB0AC"/>
<path d="M328.019 308.985L297.775 339.229C295.138 341.867 293 348.27 293 353.531V413.864C293 419.126 295.138 421.253 297.775 418.615L328.019 388.371C330.657 385.734 332.795 379.331 332.795 374.07V313.736C332.795 308.475 330.657 306.348 328.019 308.985Z" fill="#F28E2B"/>
<path d="M371.793 265.211L341.549 295.455C338.912 298.092 336.774 304.496 336.774 309.757V370.09C336.774 375.351 338.912 377.478 341.549 374.841L371.793 344.597C374.431 341.96 376.569 335.557 376.569 330.296V269.962C376.569 264.701 374.431 262.574 371.793 265.211Z" fill="#E15759"/>
<path d="M415.568 221.437L385.324 251.681C382.686 254.318 380.548 260.721 380.548 265.983V326.316C380.548 331.577 382.686 333.704 385.324 331.067L415.568 300.823C418.205 298.186 420.343 291.783 420.343 286.521V226.188C420.343 220.927 418.205 218.8 415.568 221.437Z" fill="#F28E2B"/>
<path d="M328.019 396.31L297.775 426.554C295.138 429.191 293 435.594 293 440.856V501.189C293 506.45 295.138 508.577 297.775 505.94L328.019 475.696C330.657 473.059 332.795 466.656 332.795 461.394V401.061C332.795 395.8 330.657 393.673 328.019 396.31Z" fill="#EDC948"/>
<path d="M371.793 352.536L341.549 382.78C338.912 385.417 336.774 391.82 336.774 397.081V457.415C336.774 462.676 338.912 464.803 341.549 462.166L371.793 431.922C374.431 429.284 376.569 422.881 376.569 417.62V357.287C376.569 352.026 374.431 349.898 371.793 352.536Z" fill="#4E79A7"/>
<path d="M415.568 308.762L385.324 339.006C382.686 341.643 380.548 348.046 380.548 353.307V413.641C380.548 418.902 382.686 421.029 385.324 418.392L415.568 388.148C418.205 385.51 420.343 379.107 420.343 373.846V313.513C420.343 308.251 418.205 306.124 415.568 308.762Z" fill="#59A14F"/>
</g>
<g clip-path="url(#clip2_2_197)">
<path d="M231.675 123H170.638C165.315 123 158.862 125.138 156.225 127.775L125.981 158.019C123.343 160.657 125.52 162.795 130.843 162.795H191.88C197.203 162.795 203.656 160.657 206.293 158.019L236.537 127.775C239.174 125.138 236.998 123 231.675 123Z" fill="#4E79A7"/>
<path d="M320.019 123H258.981C253.659 123 247.206 125.138 244.568 127.775L214.324 158.019C211.687 160.657 213.864 162.795 219.187 162.795H280.224C285.547 162.795 292 160.657 294.637 158.019L324.881 127.775C327.518 125.138 325.341 123 320.019 123Z" fill="#4E79A7"/>
<path d="M408.363 123H347.325C342.002 123 335.549 125.138 332.912 127.775L302.668 158.019C300.031 160.657 302.208 162.795 307.53 162.795H368.568C373.891 162.795 380.343 160.657 382.981 158.019L413.225 127.775C415.862 125.138 413.685 123 408.363 123Z" fill="#4E79A7"/>
<path d="M187.901 166.774H126.863C121.541 166.774 115.088 168.912 112.451 171.549L82.2066 201.793C79.5693 204.431 81.7461 206.569 87.0688 206.569H148.106C153.429 206.569 159.882 204.431 162.519 201.793L192.763 171.549C195.4 168.912 193.224 166.774 187.901 166.774Z" fill="#EDC948"/>
<path d="M276.245 166.774H215.207C209.884 166.774 203.432 168.912 200.794 171.549L170.55 201.793C167.913 204.431 170.09 206.569 175.412 206.569H236.45C241.773 206.569 248.225 204.431 250.863 201.793L281.107 171.549C283.744 168.912 281.567 166.774 276.245 166.774Z" fill="#BAB0AC"/>
<path d="M364.588 166.774H303.551C298.228 166.774 291.775 168.912 289.138 171.549L258.894 201.793C256.257 204.431 258.434 206.569 263.756 206.569H324.794C330.116 206.569 336.569 204.431 339.207 201.793L369.451 171.549C372.088 168.912 369.911 166.774 364.588 166.774Z" fill="#E15759"/>
<path d="M144.127 210.548H83.0893C77.7666 210.548 71.3138 212.686 68.6764 215.324L38.4325 245.568C35.7951 248.205 37.972 250.343 43.2946 250.343H104.332C109.655 250.343 116.108 248.205 118.745 245.568L148.989 215.324C151.626 212.686 149.449 210.548 144.127 210.548Z" fill="#E15759"/>
<path d="M232.471 210.548H171.433C166.11 210.548 159.658 212.686 157.02 215.324L126.776 245.568C124.139 248.205 126.316 250.343 131.638 250.343H192.676C197.999 250.343 204.451 248.205 207.089 245.568L237.333 215.324C239.97 212.686 237.793 210.548 232.471 210.548Z" fill="#F28E2B"/>
<path d="M320.814 210.548H259.777C254.454 210.548 248.001 212.686 245.364 215.324L215.12 245.568C212.483 248.205 214.659 250.343 219.982 250.343H281.02C286.342 250.343 292.795 248.205 295.432 245.568L325.676 215.324C328.314 212.686 326.137 210.548 320.814 210.548Z" fill="#F28E2B"/>
</g>
<g clip-path="url(#clip3_2_197)">
<path d="M541.018 258H479.98C474.658 258 470.343 262.315 470.343 267.638V328.675C470.343 333.998 474.658 338.312 479.98 338.312H541.018C546.341 338.312 550.655 333.998 550.655 328.675V267.638C550.655 262.315 546.341 258 541.018 258Z" fill="#F28E2B"/>
<path d="M629.362 258H568.324C563.002 258 558.687 262.315 558.687 267.638V328.675C558.687 333.998 563.002 338.312 568.324 338.312H629.362C634.684 338.312 638.999 333.998 638.999 328.675V267.638C638.999 262.315 634.684 258 629.362 258Z" fill="#59A14F"/>
<path d="M717.705 258H656.668C651.345 258 647.03 262.315 647.03 267.638V328.675C647.03 333.998 651.345 338.312 656.668 338.312H717.705C723.028 338.312 727.343 333.998 727.343 328.675V267.638C727.343 262.315 723.028 258 717.705 258Z" fill="#F28E2B"/>
<path d="M541.018 346.344H479.98C474.658 346.344 470.343 350.659 470.343 355.981V417.019C470.343 422.341 474.658 426.656 479.98 426.656H541.018C546.341 426.656 550.655 422.341 550.655 417.019V355.981C550.655 350.659 546.341 346.344 541.018 346.344Z" fill="#59A14F"/>
<path d="M629.362 346.344H568.324C563.002 346.344 558.687 350.659 558.687 355.981V417.019C558.687 422.341 563.002 426.656 568.324 426.656H629.362C634.684 426.656 638.999 422.341 638.999 417.019V355.981C638.999 350.659 634.684 346.344 629.362 346.344Z" fill="#59A14F"/>
<path d="M717.705 346.344H656.668C651.345 346.344 647.03 350.659 647.03 355.981V417.019C647.03 422.341 651.345 426.656 656.668 426.656H717.705C723.028 426.656 727.343 422.341 727.343 417.019V355.981C727.343 350.659 723.028 346.344 717.705 346.344Z" fill="#4E79A7"/>
<path d="M541.018 434.688H479.98C474.658 434.688 470.343 439.002 470.343 444.325V505.363C470.343 510.685 474.658 515 479.98 515H541.018C546.341 515 550.655 510.685 550.655 505.363V444.325C550.655 439.002 546.341 434.688 541.018 434.688Z" fill="#4E79A7"/>
<path d="M629.362 434.688H568.324C563.002 434.688 558.687 439.002 558.687 444.325V505.363C558.687 510.685 563.002 515 568.324 515H629.362C634.684 515 638.999 510.685 638.999 505.363V444.325C638.999 439.002 634.684 434.688 629.362 434.688Z" fill="#F28E2B"/>
<path d="M717.705 434.688H656.668C651.345 434.688 647.03 439.002 647.03 444.325V505.363C647.03 510.685 651.345 515 656.668 515H717.705C723.028 515 727.343 510.685 727.343 505.363V444.325C727.343 439.002 723.028 434.688 717.705 434.688Z" fill="#E15759"/>
</g>
<g clip-path="url(#clip4_2_197)">
<path d="M768.362 221.661L738.118 251.905C735.481 254.542 733.343 260.945 733.343 266.206V326.54C733.343 331.801 735.481 333.928 738.118 331.291L768.362 301.047C771 298.409 773.138 292.006 773.138 286.745V226.412C773.138 221.15 771 219.023 768.362 221.661Z" fill="#4E79A7"/>
<path d="M812.136 177.887L781.892 208.131C779.255 210.768 777.117 217.171 777.117 222.432V282.766C777.117 288.027 779.255 290.154 781.892 287.517L812.136 257.273C814.774 254.635 816.912 248.232 816.912 242.971V182.638C816.912 177.376 814.774 175.249 812.136 177.887Z" fill="#4E79A7"/>
<path d="M855.91 134.112L825.666 164.356C823.029 166.994 820.891 173.397 820.891 178.658V238.991C820.891 244.253 823.029 246.38 825.666 243.742L855.91 213.499C858.548 210.861 860.686 204.458 860.686 199.197V138.863C860.686 133.602 858.548 131.475 855.91 134.112Z" fill="#E15759"/>
<path d="M768.362 308.985L738.118 339.229C735.481 341.867 733.343 348.27 733.343 353.531V413.864C733.343 419.125 735.481 421.253 738.118 418.615L768.362 388.371C771 385.734 773.138 379.331 773.138 374.07V313.736C773.138 308.475 771 306.348 768.362 308.985Z" fill="#E15759"/>
<path d="M812.136 265.211L781.892 295.455C779.255 298.092 777.117 304.496 777.117 309.757V370.09C777.117 375.351 779.255 377.478 781.892 374.841L812.136 344.597C814.774 341.96 816.912 335.557 816.912 330.296V269.962C816.912 264.701 814.774 262.574 812.136 265.211Z" fill="#E15759"/>
<path d="M855.91 221.437L825.666 251.681C823.029 254.318 820.891 260.721 820.891 265.983V326.316C820.891 331.577 823.029 333.704 825.666 331.067L855.91 300.823C858.548 298.186 860.686 291.783 860.686 286.521V226.188C860.686 220.927 858.548 218.8 855.91 221.437Z" fill="#F28E2B"/>
<path d="M768.362 396.31L738.118 426.554C735.481 429.191 733.343 435.594 733.343 440.856V501.189C733.343 506.45 735.481 508.577 738.118 505.94L768.362 475.696C771 473.059 773.138 466.656 773.138 461.394V401.061C773.138 395.8 771 393.673 768.362 396.31Z" fill="#59A14F"/>
<path d="M812.136 352.536L781.892 382.78C779.255 385.417 777.117 391.82 777.117 397.081V457.415C777.117 462.676 779.255 464.803 781.892 462.166L812.136 431.922C814.774 429.284 816.912 422.881 816.912 417.62V357.287C816.912 352.026 814.774 349.898 812.136 352.536Z" fill="#59A14F"/>
<path d="M855.91 308.762L825.666 339.006C823.029 341.643 820.891 348.046 820.891 353.307V413.641C820.891 418.902 823.029 421.029 825.666 418.392L855.91 388.148C858.548 385.51 860.686 379.107 860.686 373.846V313.513C860.686 308.251 858.548 306.124 855.91 308.762Z" fill="#59A14F"/>
</g>
<g clip-path="url(#clip5_2_197)">
<path d="M672.018 123H610.98C605.658 123 599.205 125.138 596.568 127.775L566.324 158.019C563.686 160.657 565.863 162.795 571.186 162.795H632.223C637.546 162.795 643.999 160.657 646.636 158.019L676.88 127.775C679.517 125.138 677.341 123 672.018 123Z" fill="#BAB0AC"/>
<path d="M760.362 123H699.324C694.002 123 687.549 125.138 684.911 127.775L654.667 158.019C652.03 160.657 654.207 162.795 659.53 162.795H720.567C725.89 162.795 732.343 160.657 734.98 158.019L765.224 127.775C767.861 125.138 765.684 123 760.362 123Z" fill="#BAB0AC"/>
<path d="M848.705 123H787.668C782.345 123 775.892 125.138 773.255 127.775L743.011 158.019C740.374 160.657 742.551 162.795 747.873 162.795H808.911C814.233 162.795 820.686 160.657 823.324 158.019L853.568 127.775C856.205 125.138 854.028 123 848.705 123Z" fill="#BAB0AC"/>
<path d="M628.244 166.774H567.206C561.884 166.774 555.431 168.912 552.793 171.549L522.55 201.793C519.912 204.431 522.089 206.569 527.412 206.569H588.449C593.772 206.569 600.225 204.431 602.862 201.793L633.106 171.549C635.743 168.912 633.566 166.774 628.244 166.774Z" fill="#EDC948"/>
<path d="M716.587 166.774H655.55C650.227 166.774 643.774 168.912 641.137 171.549L610.893 201.793C608.256 204.431 610.433 206.569 615.755 206.569H676.793C682.115 206.569 688.568 204.431 691.206 201.793L721.45 171.549C724.087 168.912 721.91 166.774 716.587 166.774Z" fill="#BAB0AC"/>
<path d="M804.931 166.774H743.894C738.571 166.774 732.118 168.912 729.481 171.549L699.237 201.793C696.6 204.431 698.776 206.569 704.099 206.569H765.137C770.459 206.569 776.912 204.431 779.549 201.793L809.793 171.549C812.431 168.912 810.254 166.774 804.931 166.774Z" fill="#EDC948"/>
<path d="M584.47 210.548H523.432C518.11 210.548 511.657 212.686 509.019 215.324L478.775 245.568C476.138 248.205 478.315 250.343 483.638 250.343H544.675C549.998 250.343 556.451 248.205 559.088 245.568L589.332 215.324C591.969 212.686 589.792 210.548 584.47 210.548Z" fill="#BAB0AC"/>
<path d="M672.813 210.548H611.776C606.453 210.548 600 212.686 597.363 215.324L567.119 245.568C564.482 248.205 566.659 250.343 571.981 250.343H633.019C638.341 250.343 644.794 248.205 647.432 245.568L677.676 215.324C680.313 212.686 678.136 210.548 672.813 210.548Z" fill="#EDC948"/>
<path d="M761.157 210.548H700.12C694.797 210.548 688.344 212.686 685.707 215.324L655.463 245.568C652.826 248.205 655.002 250.343 660.325 250.343H721.363C726.685 250.343 733.138 248.205 735.775 245.568L766.019 215.324C768.657 212.686 766.48 210.548 761.157 210.548Z" fill="#EDC948"/>
</g>
<g clip-path="url(#clip6_2_197)">
<path d="M981.361 258H920.323C915.001 258 910.686 262.315 910.686 267.638V328.675C910.686 333.998 915.001 338.312 920.323 338.312H981.361C986.683 338.312 990.998 333.998 990.998 328.675V267.638C990.998 262.315 986.683 258 981.361 258Z" fill="#4E79A7"/>
<path d="M1069.7 258H1008.67C1003.34 258 999.03 262.315 999.03 267.638V328.675C999.03 333.998 1003.34 338.312 1008.67 338.312H1069.7C1075.03 338.312 1079.34 333.998 1079.34 328.675V267.638C1079.34 262.315 1075.03 258 1069.7 258Z" fill="#59A14F"/>
<path d="M1158.05 258H1097.01C1091.69 258 1087.37 262.315 1087.37 267.638V328.675C1087.37 333.998 1091.69 338.312 1097.01 338.312H1158.05C1163.37 338.312 1167.69 333.998 1167.69 328.675V267.638C1167.69 262.315 1163.37 258 1158.05 258Z" fill="#59A14F"/>
<path d="M981.361 346.344H920.323C915.001 346.344 910.686 350.659 910.686 355.981V417.019C910.686 422.341 915.001 426.656 920.323 426.656H981.361C986.683 426.656 990.998 422.341 990.998 417.019V355.981C990.998 350.659 986.683 346.344 981.361 346.344Z" fill="#59A14F"/>
<path d="M1069.7 346.344H1008.67C1003.34 346.344 999.03 350.659 999.03 355.981V417.019C999.03 422.341 1003.34 426.656 1008.67 426.656H1069.7C1075.03 426.656 1079.34 422.341 1079.34 417.019V355.981C1079.34 350.659 1075.03 346.344 1069.7 346.344Z" fill="#59A14F"/>
<path d="M1158.05 346.344H1097.01C1091.69 346.344 1087.37 350.659 1087.37 355.981V417.019C1087.37 422.341 1091.69 426.656 1097.01 426.656H1158.05C1163.37 426.656 1167.69 422.341 1167.69 417.019V355.981C1167.69 350.659 1163.37 346.344 1158.05 346.344Z" fill="#4E79A7"/>
<path d="M981.361 434.688H920.323C915.001 434.688 910.686 439.002 910.686 444.325V505.363C910.686 510.685 915.001 515 920.323 515H981.361C986.683 515 990.998 510.685 990.998 505.363V444.325C990.998 439.002 986.683 434.688 981.361 434.688Z" fill="#59A14F"/>
<path d="M1069.7 434.688H1008.67C1003.34 434.688 999.03 439.002 999.03 444.325V505.363C999.03 510.685 1003.34 515 1008.67 515H1069.7C1075.03 515 1079.34 510.685 1079.34 505.363V444.325C1079.34 439.002 1075.03 434.688 1069.7 434.688Z" fill="#4E79A7"/>
<path d="M1158.05 434.688H1097.01C1091.69 434.688 1087.37 439.002 1087.37 444.325V505.363C1087.37 510.685 1091.69 515 1097.01 515H1158.05C1163.37 515 1167.69 510.685 1167.69 505.363V444.325C1167.69 439.002 1163.37 434.688 1158.05 434.688Z" fill="#4E79A7"/>
</g>
<g clip-path="url(#clip7_2_197)">
<path d="M1208.71 221.661L1178.46 251.905C1175.82 254.542 1173.69 260.945 1173.69 266.206V326.54C1173.69 331.801 1175.82 333.928 1178.46 331.291L1208.71 301.047C1211.34 298.409 1213.48 292.006 1213.48 286.745V226.412C1213.48 221.15 1211.34 219.023 1208.71 221.661Z" fill="#F28E2B"/>
<path d="M1252.48 177.887L1222.24 208.131C1219.6 210.768 1217.46 217.171 1217.46 222.432V282.766C1217.46 288.027 1219.6 290.154 1222.24 287.517L1252.48 257.273C1255.12 254.635 1257.25 248.232 1257.25 242.971V182.638C1257.25 177.376 1255.12 175.249 1252.48 177.887Z" fill="#F28E2B"/>
<path d="M1296.25 134.112L1266.01 164.356C1263.37 166.994 1261.23 173.397 1261.23 178.658V238.991C1261.23 244.253 1263.37 246.38 1266.01 243.742L1296.25 213.499C1298.89 210.861 1301.03 204.458 1301.03 199.197V138.863C1301.03 133.602 1298.89 131.475 1296.25 134.112Z" fill="#E15759"/>
<path d="M1208.71 308.985L1178.46 339.229C1175.82 341.867 1173.69 348.27 1173.69 353.531V413.864C1173.69 419.126 1175.82 421.253 1178.46 418.615L1208.71 388.371C1211.34 385.734 1213.48 379.331 1213.48 374.07V313.736C1213.48 308.475 1211.34 306.348 1208.71 308.985Z" fill="#F28E2B"/>
<path d="M1252.48 265.211L1222.24 295.455C1219.6 298.092 1217.46 304.496 1217.46 309.757V370.09C1217.46 375.351 1219.6 377.478 1222.24 374.841L1252.48 344.597C1255.12 341.96 1257.25 335.557 1257.25 330.296V269.962C1257.25 264.701 1255.12 262.574 1252.48 265.211Z" fill="#E15759"/>
<path d="M1296.25 221.437L1266.01 251.681C1263.37 254.318 1261.23 260.721 1261.23 265.983V326.316C1261.23 331.577 1263.37 333.704 1266.01 331.067L1296.25 300.823C1298.89 298.186 1301.03 291.783 1301.03 286.521V226.188C1301.03 220.927 1298.89 218.8 1296.25 221.437Z" fill="#E15759"/>
<path d="M1208.71 396.31L1178.46 426.554C1175.82 429.191 1173.69 435.594 1173.69 440.856V501.189C1173.69 506.45 1175.82 508.577 1178.46 505.94L1208.71 475.696C1211.34 473.059 1213.48 466.656 1213.48 461.394V401.061C1213.48 395.8 1211.34 393.673 1208.71 396.31Z" fill="#F28E2B"/>
<path d="M1252.48 352.536L1222.24 382.78C1219.6 385.417 1217.46 391.82 1217.46 397.081V457.415C1217.46 462.676 1219.6 464.803 1222.24 462.166L1252.48 431.922C1255.12 429.284 1257.25 422.881 1257.25 417.62V357.287C1257.25 352.026 1255.12 349.898 1252.48 352.536Z" fill="#E15759"/>
<path d="M1296.25 308.762L1266.01 339.006C1263.37 341.643 1261.23 348.046 1261.23 353.307V413.641C1261.23 418.902 1263.37 421.029 1266.01 418.392L1296.25 388.148C1298.89 385.51 1301.03 379.107 1301.03 373.846V313.513C1301.03 308.251 1298.89 306.124 1296.25 308.762Z" fill="#E15759"/>
</g>
<g clip-path="url(#clip8_2_197)">
<path d="M1112.36 123H1051.32C1046 123 1039.55 125.138 1036.91 127.775L1006.67 158.019C1004.03 160.657 1006.21 162.795 1011.53 162.795H1072.57C1077.89 162.795 1084.34 160.657 1086.98 158.019L1117.22 127.775C1119.86 125.138 1117.68 123 1112.36 123Z" fill="#BAB0AC"/>
<path d="M1200.7 123H1139.67C1134.34 123 1127.89 125.138 1125.25 127.775L1095.01 158.019C1092.37 160.657 1094.55 162.795 1099.87 162.795H1160.91C1166.23 162.795 1172.69 160.657 1175.32 158.019L1205.57 127.775C1208.2 125.138 1206.03 123 1200.7 123Z" fill="#BAB0AC"/>
<path d="M1289.05 123H1228.01C1222.69 123 1216.24 125.138 1213.6 127.775L1183.35 158.019C1180.72 160.657 1182.89 162.795 1188.22 162.795H1249.25C1254.58 162.795 1261.03 160.657 1263.67 158.019L1293.91 127.775C1296.55 125.138 1294.37 123 1289.05 123Z" fill="#EDC948"/>
<path d="M1068.59 166.774H1007.55C1002.23 166.774 995.774 168.912 993.136 171.549L962.892 201.793C960.255 204.431 962.432 206.569 967.755 206.569H1028.79C1034.11 206.569 1040.57 204.431 1043.2 201.793L1073.45 171.549C1076.09 168.912 1073.91 166.774 1068.59 166.774Z" fill="#EDC948"/>
<path d="M1156.93 166.774H1095.89C1090.57 166.774 1084.12 168.912 1081.48 171.549L1051.24 201.793C1048.6 204.431 1050.78 206.569 1056.1 206.569H1117.14C1122.46 206.569 1128.91 204.431 1131.55 201.793L1161.79 171.549C1164.43 168.912 1162.25 166.774 1156.93 166.774Z" fill="#BAB0AC"/>
<path d="M1245.27 166.774H1184.24C1178.91 166.774 1172.46 168.912 1169.82 171.549L1139.58 201.793C1136.94 204.431 1139.12 206.569 1144.44 206.569H1205.48C1210.8 206.569 1217.25 204.431 1219.89 201.793L1250.14 171.549C1252.77 168.912 1250.6 166.774 1245.27 166.774Z" fill="#EDC948"/>
<path d="M1024.81 210.548H963.775C958.452 210.548 952 212.686 949.362 215.324L919.118 245.568C916.481 248.205 918.658 250.343 923.98 250.343H985.018C990.341 250.343 996.793 248.205 999.431 245.568L1029.67 215.324C1032.31 212.686 1030.14 210.548 1024.81 210.548Z" fill="#BAB0AC"/>
<path d="M1113.16 210.548H1052.12C1046.8 210.548 1040.34 212.686 1037.71 215.324L1007.46 245.568C1004.82 248.205 1007 250.343 1012.32 250.343H1073.36C1078.68 250.343 1085.14 248.205 1087.77 245.568L1118.02 215.324C1120.66 212.686 1118.48 210.548 1113.16 210.548Z" fill="#EDC948"/>
<path d="M1201.5 210.548H1140.46C1135.14 210.548 1128.69 212.686 1126.05 215.324L1095.81 245.568C1093.17 248.205 1095.35 250.343 1100.67 250.343H1161.71C1167.03 250.343 1173.48 248.205 1176.12 245.568L1206.36 215.324C1209 212.686 1206.82 210.548 1201.5 210.548Z" fill="#EDC948"/>
</g>
<defs>
<clipPath id="clip0_2_197">
<rect width="257" height="257" fill="white" transform="translate(30 258)"/>
</clipPath>
<clipPath id="clip1_2_197">
<rect width="180.09" height="254.035" fill="white" transform="matrix(0.707107 -0.707107 0 1 293 256.68)"/>
</clipPath>
<clipPath id="clip2_2_197">
<rect width="257" height="180.09" fill="white" transform="matrix(1 0 -0.707107 0.707107 161 123)"/>
</clipPath>
<clipPath id="clip3_2_197">
<rect width="257" height="257" fill="white" transform="translate(470.343 258)"/>
</clipPath>
<clipPath id="clip4_2_197">
<rect width="180.09" height="254.035" fill="white" transform="matrix(0.707107 -0.707107 0 1 733.343 256.68)"/>
</clipPath>
<clipPath id="clip5_2_197">
<rect width="257" height="180.09" fill="white" transform="matrix(1 0 -0.707107 0.707107 601.343 123)"/>
</clipPath>
<clipPath id="clip6_2_197">
<rect width="257" height="257" fill="white" transform="translate(910.686 258)"/>
</clipPath>
<clipPath id="clip7_2_197">
<rect width="180.09" height="254.035" fill="white" transform="matrix(0.707107 -0.707107 0 1 1173.69 256.68)"/>
</clipPath>
<clipPath id="clip8_2_197">
<rect width="257" height="180.09" fill="white" transform="matrix(1 0 -0.707107 0.707107 1041.69 123)"/>
</clipPath>
</defs>
</svg>
